<!--?xml version="1.0" encoding="utf-8"?-->
<!-- Generator: Adobe Illustrator 18.1.1, SVG Export Plug-In . SVG Version: 6.00 Build 0)  -->

<svg version="1.1" id="_x32_" xmlns="http://www.w3.org/2000/svg" xmlns:xlink="http://www.w3.org/1999/xlink" x="0px" y="0px" viewBox="0 0 512 512" style="width: 128px; height: 128px; opacity: 1;" xml:space="preserve">
<style type="text/css">
	.st0{fill:#4B4B4B;}
</style>
<g>
	<path class="st0" d="M447.663,342.938c0-101.669,4.036-283.834-191.664-283.834C60.3,59.104,64.336,241.269,64.336,342.938
		c0,49.594-39.241,49.497-64.336,37.469c3.819,30.516,41.956,72.489,76.3,72.489c47.789,0,77.516-32.04,77.516-82.906
		c0-50.867,0-104.65,0-104.65h204.368c0,0,0,53.782,0,104.65c0,50.866,29.72,82.906,77.524,82.906
		c34.335,0,72.473-41.973,76.292-72.489C486.897,392.435,447.663,392.531,447.663,342.938z" style="fill: rgb(255, 255, 255);"></path>
</g>
</svg>
